<svg width="25" height="25" viewBox="0 0 25 25" fill="none" xmlns="http://www.w3.org/2000/svg">
<path d="M6.6699 1.67992C4.0299 1.86992 1.83987 3.88992 5.48987 7.52992C5.79987 7.83992 6.13989 8.17992 6.50989 8.52992L15.7999 8.47992C15.9699 8.47992 16.1199 8.61992 16.1199 8.79992L16.0699 18.0899C16.4199 18.4499 16.7699 18.7999 17.0699 19.1099C20.7199 22.7599 22.7399 20.5699 22.9199 17.9299C24.0999 1.17992 24.1799 0.419922 24.1799 0.419922C24.1799 0.419922 23.4299 0.499924 6.6699 1.67992Z" fill="#009FE3"/>
<path d="M0.27002 3.49969C0.27002 6.03969 0.290018 14.9097 0.300018 18.1797C0.300018 18.6697 0.870031 18.9397 1.25003 18.6297L9.28003 12.0197C9.51003 11.7797 9.51002 11.3997 9.27002 11.1797C8.45002 10.3997 6.65002 8.69969 5.49002 7.53969C1.84002 3.88969 4.03004 1.86969 6.67004 1.68969C23.43 0.509686 24.18 0.429688 24.18 0.429688L3.34003 0.439686C3.34003 0.429686 0.27002 0.359687 0.27002 3.49969Z" fill="#0050A0"/>
<path d="M22.92 17.9298C22.73 20.5698 20.71 22.7598 17.07 19.1098C15.91 17.9498 14.21 16.1498 13.43 15.3298C13.2 15.0898 12.82 15.0798 12.59 15.3198L5.97997 23.3498C5.66997 23.7298 5.92995 24.2998 6.42995 24.2998C9.69995 24.3098 18.5699 24.3298 21.1099 24.3298C24.2499 24.3298 24.18 21.2698 24.18 21.2698L24.19 0.429782C24.18 0.419782 24.1 1.16978 22.92 17.9298Z" fill="#0050A0"/>
</svg>
